<svg class="icon" style="width: 1em;height: 1em;vertical-align: middle;fill: currentColor;overflow: hidden;"
    viewBox="0 0 1024 1024" version="1.1" xmlns="http://www.w3.org/2000/svg" p-id="1588">
    <path
        d="M810.666667 106.666667H213.333333A106.666667 106.666667 0 0 0 106.666667 213.333333v597.333334A106.666667 106.666667 0 0 0 213.333333 917.333333h597.333334a106.666667 106.666667 0 0 0 106.666666-106.666666V213.333333A106.666667 106.666667 0 0 0 810.666667 106.666667z m-149.333334 42.666666V469.333333c0 11.946667-9.386667 21.333333-21.333333 21.333334H362.666667c-11.946667 0-21.333333-9.386667-21.333334-21.333334V149.333333h320z m213.333334 661.333334c0 35.413333-28.586667 64-64 64H213.333333c-35.413333 0-64-28.586667-64-64V213.333333c0-35.413333 28.586667-64 64-64h85.333334V469.333333c0 35.413333 28.586667 64 64 64H640c35.413333 0 64-28.586667 64-64V149.333333H810.666667c35.413333 0 64 28.586667 64 64v597.333334z"
        fill="currentcolor" p-id="1589"></path>
    <path
        d="M554.666667 384c11.946667 0 21.333333-9.386667 21.333333-21.333333v-85.333334c0-11.946667-9.386667-21.333333-21.333333-21.333333s-21.333333 9.386667-21.333334 21.333333v85.333334c0 11.946667 9.386667 21.333333 21.333334 21.333333z"
        fill="currentcolor" p-id="1590"></path>
</svg>