<svg class="icon" style="width: 1em;height: 1em;vertical-align: middle;fill: currentColor;overflow: hidden;" viewBox="0 0 1024 1024" version="1.1" xmlns="http://www.w3.org/2000/svg" p-id="1617"><path d="M911.981714 217.161143c21.138286 21.138286 38.838857 63.414857 38.838857 93.696v658.285714a54.857143 54.857143 0 0 1-54.857142 54.857143h-768a54.857143 54.857143 0 0 1-54.857143-54.857143v-914.285714a54.857143 54.857143 0 0 1 54.857143-54.857143h512c30.281143 0 72.557714 17.700571 93.696 38.838857zM658.285714 77.714286V292.571429h214.857143c-3.437714-9.728-8.557714-19.419429-12.580571-23.442286L681.691429 90.258286c-3.986286-3.986286-13.714286-9.142857-23.442286-12.580572zM877.714286 950.857143V365.714286h-237.714286A54.857143 54.857143 0 0 1 585.142857 310.857143V73.142857H146.285714v877.714286h731.428572zM347.428571 438.857143a18.285714 18.285714 0 0 1 25.709715-3.437714L402.285714 457.142857a18.285714 18.285714 0 0 1 3.437715 25.709714L301.714286 621.714286l104.009143 138.861714A18.285714 18.285714 0 0 1 402.285714 786.285714l-29.147428 21.723429A18.285714 18.285714 0 0 1 347.428571 804.571429l-129.133714-171.995429a18.907429 18.907429 0 0 1 0-21.723429z m458.276572 171.995428a18.907429 18.907429 0 0 1 0 21.723429L676.571429 804.571429a18.285714 18.285714 0 0 1-25.709715 3.437714L621.714286 786.285714a18.285714 18.285714 0 0 1-3.437715-25.709714L722.285714 621.714286l-104.009143-138.861715A18.285714 18.285714 0 0 1 621.714286 457.142857l29.147428-21.723428A18.285714 18.285714 0 0 1 676.571429 438.857143z m-354.267429 263.424a18.139429 18.139429 0 0 1-14.848-21.138285l78.848-474.843429a18.139429 18.139429 0 0 1 21.138286-14.848l35.986286 5.705143a18.139429 18.139429 0 0 1 14.848 21.138286l-78.848 474.843428a18.139429 18.139429 0 0 1-21.138286 14.848z" fill="" p-id="1618"></path></svg>