<svg class="icon" style="width: 1em;height: 1em;vertical-align: middle;fill: currentColor;overflow: hidden;"
    viewBox="0 0 1024 1024" version="1.1" xmlns="http://www.w3.org/2000/svg" p-id="5021">
    <path
        d="M771.2 443.2c-25.6 0-43.2 17.6-43.2 43.2v424l-256-158.4c-20.8-12.8-46.4-8-59.2 12.8s-8 46.4 12.8 59.2l257.6 158.4c12.8 8 30.4 12.8 46.4 12.8 12.8 0 30.4-4.8 43.2-12.8 25.6-17.6 43.2-43.2 43.2-73.6V486.4c-1.6-25.6-19.2-43.2-44.8-43.2zM1011.2 40c-17.6-17.6-43.2-17.6-59.2 0l-137.6 137.6V118.4c0-30.4-17.6-59.2-46.4-76.8-30.4-12.8-59.2-12.8-89.6 4.8L403.2 225.6c0 4.8-4.8 4.8-4.8 4.8H107.2C46.4 228.8 0 276.8 0 336v390.4c0 56 46.4 102.4 107.2 102.4h59.2L80 915.2c-17.6 17.6-17.6 43.2 0 59.2 8 8 20.8 12.8 30.4 12.8s20.8-4.8 30.4-12.8L1011.2 100.8c17.6-12.8 17.6-43.2 0-60.8z m-904 704c-12.8 0-20.8-8-20.8-20.8V332.8c0-8 8-17.6 20.8-17.6h291.2c20.8 0 43.2-4.8 59.2-17.6L728 118.4v150.4l-480 475.2H107.2z"
        p-id="5022"></path>
</svg>